<svg width="15" height="20" viewBox="0 0 15 20" fill="none" xmlns="http://www.w3.org/2000/svg">
<path d="M5.78667 19.2133C4.80889 19.2133 3.82222 19.1778 2.82667 19.1067C1.83111 19.0533 0.96 18.9289 0.213333 18.7333V0.786668C0.604444 0.715556 1.02222 0.653334 1.46667 0.6C1.91111 0.52889 2.36444 0.475557 2.82667 0.440001C3.28889 0.404446 3.74222 0.377779 4.18667 0.36C4.64889 0.342223 5.08444 0.333334 5.49333 0.333334C6.61333 0.333334 7.65333 0.422223 8.61333 0.6C9.57333 0.76 10.4 1.03556 11.0933 1.42667C11.8044 1.81778 12.3556 2.33333 12.7467 2.97333C13.1378 3.61333 13.3333 4.40445 13.3333 5.34667C13.3333 6.21778 13.12 6.96444 12.6933 7.58667C12.2844 8.20889 11.7067 8.70667 10.96 9.08C12.08 9.45333 12.9067 10.0044 13.44 10.7333C13.9733 11.4622 14.24 12.3867 14.24 13.5067C14.24 15.4089 13.5467 16.84 12.16 17.8C10.7733 18.7422 8.64889 19.2133 5.78667 19.2133ZM3.52 10.68V16.3067C3.89333 16.3422 4.29333 16.3689 4.72 16.3867C5.14667 16.4044 5.53778 16.4133 5.89333 16.4133C6.58667 16.4133 7.22667 16.3689 7.81333 16.28C8.41778 16.1911 8.93333 16.04 9.36 15.8267C9.80444 15.5956 10.1511 15.2933 10.4 14.92C10.6667 14.5467 10.8 14.0667 10.8 13.48C10.8 12.4311 10.4178 11.7022 9.65333 11.2933C8.88889 10.8844 7.83111 10.68 6.48 10.68H3.52ZM3.52 8.04H5.89333C7.17333 8.04 8.17778 7.86222 8.90667 7.50667C9.63555 7.13333 10 6.47556 10 5.53333C10 4.64445 9.61778 4.01333 8.85333 3.64C8.10667 3.26667 7.12889 3.08 5.92 3.08C5.40444 3.08 4.94222 3.08889 4.53333 3.10667C4.14222 3.12445 3.80444 3.15111 3.52 3.18667V8.04Z" fill="white"/>
</svg>
