<svg viewBox="0 0 327 167" fill="none" xmlns="http://www.w3.org/2000/svg">
<ellipse cx="140.202" cy="35.4987" rx="46.7224" ry="35.3134" transform="rotate(-0.0571496 140.202 35.4987)" fill="white"/>
<ellipse cx="216.265" cy="39.2259" rx="46.7224" ry="35.3134" transform="rotate(-0.0571496 216.265 39.2259)" fill="white"/>
<ellipse cx="284.748" cy="69.3097" rx="41.2895" ry="39.388" transform="rotate(-0.0571496 284.748 69.3097)" fill="white"/>
<ellipse cx="267.679" cy="113.061" rx="31.7821" ry="33.6836" transform="rotate(-0.0571496 267.679 113.061)" fill="white"/>
<ellipse cx="37.557" cy="70.9145" rx="37.4865" ry="38.5731" transform="rotate(-0.0571496 37.557 70.9145)" fill="white"/>
<ellipse cx="130.778" cy="118.902" rx="45.9074" ry="39.388" transform="rotate(-0.0571496 130.778 118.902)" fill="white"/>
<ellipse cx="72.097" cy="112.985" rx="27.4358" ry="25.2627" transform="rotate(-0.0571496 72.097 112.985)" fill="white"/>
<ellipse cx="84.8189" cy="67.8794" rx="33.6836" ry="35.5851" transform="rotate(-0.0571496 84.8189 67.8794)" fill="white"/>
<ellipse cx="206.029" cy="125.075" rx="47.8089" ry="41.2895" transform="rotate(-0.0571496 206.029 125.075)" fill="white"/>
<ellipse cx="181.805" cy="77.8333" rx="82.3074" ry="25.5343" transform="rotate(-0.0571496 181.805 77.8333)" fill="white"/>
</svg>
