<svg width="28" height="23" viewBox="0 0 28 23" fill="none" xmlns="http://www.w3.org/2000/svg">
<mask id="mask0_281_131" style="mask-type:alpha" maskUnits="userSpaceOnUse" x="0" y="0" width="28" height="23">
<path d="M24.4276 1.72131H12.3932C13.6199 2.44482 14.677 3.41656 15.5056 4.56712H24.4276C24.8358 4.56712 25.1687 4.90145 25.1687 5.31184V18.9211C25.1687 19.3316 24.8359 19.6661 24.4276 19.6661H10.8871C10.4787 19.6661 10.146 19.3316 10.146 18.9211V9.8538C9.80409 9.67703 9.4465 9.52791 9.07687 9.4129C8.86026 10.0837 8.3901 10.6553 7.74315 10.9971C7.60755 11.0685 7.46021 11.1119 7.31458 11.1592V18.9212C7.31458 20.9009 8.91733 22.512 10.887 22.512H24.4275C26.3972 22.512 28 20.9009 28 18.9212V5.31184C28 3.33222 26.3973 1.72131 24.4276 1.72131Z" fill="black"/>
<path d="M7.32088 7.22023C10.2381 7.2906 12.7894 8.83302 14.2567 11.1471C14.3912 11.3584 14.6217 11.4806 14.8613 11.4806C14.9267 11.4806 14.9931 11.4714 15.0576 11.4529C15.3627 11.3648 15.5747 11.0869 15.5784 10.7683C15.5784 10.7395 15.5784 10.7107 15.5784 10.6822C15.5784 6.05485 11.899 2.29844 7.32196 2.18815V0.843089C7.32196 0.529917 7.1496 0.243661 6.87495 0.0973388C6.7524 0.0323893 6.61777 0 6.4841 0C6.3173 0 6.15232 0.0501805 6.01037 0.147348L0.326287 4.05755C0.122666 4.19748 0.00102695 4.42906 5.73012e-06 4.67728C-0.00095876 4.92465 0.119886 5.1573 0.322656 5.29895L6.00577 9.25927C6.14863 9.35923 6.31549 9.4093 6.48314 9.4093C6.61675 9.4093 6.74956 9.37776 6.87217 9.31373C7.14761 9.16838 7.32088 8.88035 7.32088 8.56718V7.22023Z" fill="black"/>
</mask>
<g mask="url(#mask0_281_131)">
<rect x="-65.7142" y="-118.907" width="258.857" height="219.566" fill="white"/>
</g>
</svg>
