<svg width="23" height="30" viewBox="0 0 23 30" fill="none" xmlns="http://www.w3.org/2000/svg">
<path d="M7.482 21.3263C6.496 21.3263 5.6405 21.174 4.9155 20.8695C4.1905 20.565 3.596 20.1517 3.132 19.6297C2.668 19.0932 2.32 18.4625 2.088 17.7375C1.8705 17.0125 1.76175 16.2295 1.76175 15.3885V5.92725H3.8715V15.1492C3.8715 16.6572 4.205 17.752 4.872 18.4335C5.539 19.115 6.409 19.4557 7.482 19.4557C8.0185 19.4557 8.50425 19.376 8.93925 19.2165C9.38875 19.0425 9.773 18.7815 10.092 18.4335C10.411 18.0855 10.6575 17.6432 10.8315 17.1067C11.0055 16.5557 11.0925 15.9032 11.0925 15.1492V5.92725H13.2023V15.3885C13.2023 16.2295 13.0863 17.0125 12.8543 17.7375C12.6368 18.4625 12.2888 19.0932 11.8103 19.6297C11.3463 20.1517 10.7518 20.565 10.0268 20.8695C9.31625 21.174 8.468 21.3263 7.482 21.3263Z" fill="white"/>
<line x1="2" y1="24.4062" x2="15" y2="24.4062" stroke="white" stroke-width="1.8125"/>
</svg>
